<?xml version="1.0" encoding="utf-8"?>
<!-- Generator: Adobe Illustrator 23.0.1, SVG Export Plug-In . SVG Version: 6.00 Build 0)  -->
<svg version="1.1" id="Layer_1" xmlns="http://www.w3.org/2000/svg" xmlns:xlink="http://www.w3.org/1999/xlink" x="0px" y="0px"
	 viewBox="0 0 512 512" style="enable-background:new 0 0 512 512;" xml:space="preserve">
<style type="text/css">
	.st0{fill-rule:evenodd;clip-rule:evenodd;fill:#FFFFFF;}
</style>
<g id="facebook__x2C__social__x2C__media_x2C__social__x2C__media_x2C_">
	<g>
		<path class="st0" d="M425.6,86.3C382.2,42.9,322.3,16.1,256,16.1c-66.3,0-126.2,26.8-169.7,70.3C42.9,129.8,16,189.7,16,256
			c0,66.3,26.8,126.2,70.3,169.7c43.4,43.4,103.4,70.3,169.7,70.3s126.2-26.8,169.7-70.3c43.4-43.4,70.3-103.4,70.3-169.7
			C495.9,189.7,469.1,129.8,425.6,86.3z M412.5,412.5c-40.1,40-95.4,64.7-156.5,64.7c-61.1,0-116.4-24.7-156.4-64.7
			c-40-40.1-64.8-95.4-64.8-156.5c0-61.1,24.8-116.4,64.8-156.4c40-40,95.3-64.8,156.4-64.8c61.1,0,116.4,24.8,156.5,64.8
			c40,40,64.7,95.3,64.7,156.4C477.2,317.1,452.5,372.4,412.5,412.5z"/>
		<path class="st0" d="M276,187.3c0-9.4,4.5-13.3,9.1-13.3c4.4,0,28.9,0,28.9,0v-43h-39.3c-42.1,0-52.7,33.7-52.7,53.9V204h-24v32.6
			V252h24c0,58,0,126,0,126h54c0,0,0-68,0-126h32.7l1.6-18.8l2.9-29.2H276V187.3z"/>
	</g>
</g>
</svg>
