<?xml version="1.0" encoding="utf-8"?>
<!-- Generator: Adobe Illustrator 23.0.1, SVG Export Plug-In . SVG Version: 6.00 Build 0)  -->
<svg version="1.1" id="Layer_1" xmlns="http://www.w3.org/2000/svg" xmlns:xlink="http://www.w3.org/1999/xlink" x="0px" y="0px"
	 viewBox="0 0 173 199" style="enable-background:new 0 0 173 199;" xml:space="preserve">
<style type="text/css">
	.st0{fill:#2E2E2E;}
</style>
<g transform="translate(0.000000,199.000000) scale(0.100000,-0.100000)">
	<path class="st0" d="M670,1817c-97-102-179-198-199-233l-34-59l-74,76c-63,65-73,80-73,112c0,70-96,134-226,151l-52,6l14-71
		c26-135,84-209,164-209c31,0,45-9,103-68c37-37,67-70,67-73c0-4-21-12-46-19c-107-30-224-135-277-248c-30-64-32-73-31-187
		c0-136,13-177,85-273l40-52l-35-43C56,578,13,495,4,452l-6-31l72-7l72-7l-7-56c-3-31-9-67-12-80c-5-19-2-22,13-18c11,3,47,9,82,12
		l62,7v-45c0-24,3-59,6-76c6-26,10-30,28-25c47,14,129,58,178,94l51,39l36-28c52-41,112-69,182-85c33-8,62-16,64-18s-1-24-7-50
		c-13-55-1-78,41-78c30,0,68,36,254,243c74,82,128,153,152,198l37,71l24-23c20-19,24-32,24-86c0-51,4-67,21-82c26-24,36-34,60-60
		c14-15,26-20,43-15c18,4,28-1,46-25c47-67,141-80,187-26c41,47,20,136-42,178c-17,12-30,28-27,35c8,24-8,61-29,67
		c-11,4-24,18-29,31c-9,22-15,24-79,24c-99,0-109,18-29,56c76,36,166,121,202,192c85,167,71,340-39,494l-36,49l35,42
		c40,49,96,157,96,185c0,22-34,32-102,32c-40,0-40,0-35,33c20,116,20,129,1,124c-11-3-47-9-81-12l-63-7v34c0,64-12,108-29,108
		c-24,0-144-63-191-100l-40-32l-49,36c-59,44-121,72-188,86l-51,11l5,39c3,21,3,50-1,64c-5,21-12,26-39,26
		C839,1990,817,1971,670,1817z M741,1568c-29-151-42-203-58-220c-34-37-56-90-62-148l-6-55l-32,44c-116,157-90,292,93,481
		c53,55,98,99,99,98C777,1766,761,1676,741,1568z M1046,1704c89-53,146-139,165-251c9-58,9-79-5-133c-15-60-78-170-97-170
		c-4,0-5,15-2,34c11,70-77,201-201,299c-31,25-42,28-56,19c-16-10-17-7-10,26c5,20,16,80,25,133l17,96l61-14
		C976,1735,1023,1718,1046,1704z M923,1328c58-62,79-100,75-135c-4-33-27-48-61-39c-26,6-27,9-27,73c0,48-5,72-17,85
		c-41,45-83-2-83-94c0-49-3-55-29-71c-39-23-39-23-50,19c-8,27-7,45,3,68c16,36,112,146,129,146C869,1380,896,1357,923,1328z
		 M462,1180c14-25,35-56,45-69c19-24,19-24-8-75c-31-58-69-199-69-261c0-22-6-61-13-86l-12-46l-64,21c-53,17-67,27-82,56
		c-26,48-24,67,16,154c46,100,46,143,0,244c-29,62-35,84-30,114c9,49,41,79,107,99l52,16l16-61C428,1253,447,1205,462,1180z
		 M1434,1306c13-8,32-35,41-60l17-45l-38-83c-49-102-50-146-5-241c55-119,35-180-68-215c-55-19-61-19-65-4c-10,35-20,98-18,113
		c5,29-46,216-72,267l-25,49l30,44c47,68,68,114,80,168l10,50l45-14C1391,1328,1422,1315,1434,1306z M1617,1018c4-56,1-91-12-133
		l-18-57l-29,63c-44,96-44,107-7,191l34,75l14-31C1606,1109,1615,1061,1617,1018z M210,995c0-5-16-44-35-85l-34-75l-17,40
		c-24,54-24,186,0,240l17,40l34-75C194,1039,210,1001,210,995z M1117,1015c22-25,63-139,63-175c0-13-16-21-65-34
		c-81-20-134-20-163,0c-30,21-28,36,9,58c31,18,31,18,80-9c53-29,84-27,94,6c11,33-3,53-55,82c-48,27-50,30-50,72v44l33-10
		C1080,1044,1105,1029,1117,1015z M688,1008c3-35,0-39-46-68c-68-41-77-76-29-102c16-8,30-5,71,17l51,28l38-26l37-25l-26-21
		c-15-12-40-21-56-21c-35,0-170,29-181,39c-14,13,41,166,70,195C655,1062,684,1056,688,1008z M956,690c13,0,24-3,24-6
		c0-8-76-290-101-376c-23-79-27-80-132-48c-83,26-164,96-203,176c-32,66-43,171-24,238c12,43,13,44,44,35c118-35,221-31,275,10
		c23,18,25,18,59-5C917,701,943,690,956,690z M1208,661c14-67,6-104-42-186c-29-48-204-252-194-225c3,8,20,69,38,135s44,163,59,215
		l27,94l44,12c25,7,47,12,50,13C1194,720,1202,693,1208,661z"/>
</g>
</svg>
