<?xml version="1.0" encoding="iso-8859-1"?>
<!-- Generator: Adobe Illustrator 19.0.0, SVG Export Plug-In . SVG Version: 6.00 Build 0)  -->
<svg version="1.1" id="Capa_1" xmlns="http://www.w3.org/2000/svg" xmlns:xlink="http://www.w3.org/1999/xlink" x="0px" y="0px"
	 viewBox="0 0 511.999 511.999" style="enable-background:new 0 0 511.999 511.999;" xml:space="preserve">
<g transform="translate(0 -1)">
	<g transform="translate(1 2)">
		<path style="fill:#0377BC;" d="M314.733,11.802l3.413,3.413l-6.144-1.792C313.794,12.399,314.733,11.802,314.733,11.802z"/>
		<g>
			<polygon style="fill:#00695C;" points="378.904,192.879 391.533,202.949 391.533,498.202 365.933,498.202 365.933,182.469 			"/>
			<path style="fill:#00695C;" d="M502.466,131.269l-68.267,102.4l-24.149-19.285l66.816-100.181l-30.123-23.125l-59.989-46.251
				c4.489,1.769,8.711,4.152,12.544,7.083l73.045,56.235L502.466,131.269z"/>
		</g>
		<path style="fill:#009688;" d="M476.866,114.202L410.05,214.383l-5.547-4.437l-12.971-10.411v3.413l-12.629-10.069l-12.971-10.411
			v315.733H118.466V199.535l-12.971,10.411l-12.629,10.069L75.8,233.669l-16.299-24.491L7.533,131.269l30.123-23.125l73.045-56.235
			c5.107-3.954,10.931-6.881,17.152-8.619L178.2,28.869l17.067-17.067c18.03,10.92,38.656,16.813,59.733,17.067
			c20.002-0.24,39.616-5.554,57.003-15.445l6.144,1.792L331.8,28.869l50.347,14.421c1.507,0.393,2.989,0.878,4.437,1.451
			l0.171,0.085l59.989,46.251L476.866,114.202z"/>
		<polygon style="fill:#02A9F4;" points="410.05,214.383 408.6,216.602 391.533,202.949 391.533,199.535 404.504,209.946 		"/>
		<rect x="365.933" y="464.069" style="fill:#FDD834;" width="25.6" height="34.133"/>
		<rect x="118.466" y="464.069" style="fill:#FFEB3A;" width="247.467" height="34.133"/>
	</g>
	<path d="M405.483,47.127c-5.971-4.597-12.761-8.019-20.008-10.083l-48.208-13.775l-15.5-15.5
		c-2.872-2.884-7.384-3.331-10.767-1.067c-16.624,9.994-35.605,15.389-55,15.633c-19.386-0.302-38.353-5.693-55-15.633
		c-3.383-2.26-7.892-1.813-10.767,1.067l-15.5,15.5l-48.208,13.775c-7.248,2.064-14.037,5.486-20.008,10.083L3.333,126.502
		c-3.559,2.737-4.39,7.764-1.9,11.5l68.267,102.4c1.325,1.992,3.427,3.335,5.792,3.7c2.363,0.359,4.769-0.281,6.642-1.766
		l28.8-23.042v280.908c-0.001,2.264,0.897,4.435,2.498,6.035c1.601,1.601,3.772,2.499,6.035,2.498h273.067
		c2.264,0.001,4.435-0.897,6.035-2.498c1.601-1.601,2.499-3.772,2.498-6.035V219.294l28.8,23.042
		c1.869,1.493,4.278,2.134,6.642,1.767c2.364-0.368,4.465-1.71,5.792-3.7l68.267-102.4c2.49-3.736,1.659-8.763-1.9-11.5
		L405.483,47.127z M256,491.669H128v-17.067h256v17.067H256z M433.266,223.194l-16.31-13.051l42.411-63.607
		c2.587-3.92,1.519-9.194-2.389-11.8c-3.908-2.605-9.187-1.563-11.811,2.333l-41.586,62.372l-5.714-4.572
		c-2.562-2.049-6.073-2.449-9.03-1.027c-2.957,1.422-4.838,4.413-4.837,7.694v256H128v-256c0-3.281-1.88-6.272-4.837-7.693
		c-2.957-1.422-6.467-1.022-9.03,1.027l-5.714,4.572l-41.586-62.372c-2.634-3.869-7.893-4.894-11.787-2.298
		c-3.894,2.596-4.97,7.845-2.412,11.764l42.411,63.607l-16.311,13.051l-58.675-88.025l96.859-74.508
		c4.265-3.284,9.115-5.727,14.292-7.2l50.333-14.383c1.395-0.399,2.666-1.148,3.691-2.175l12.425-12.425
		c17.974,9.569,37.981,14.687,58.342,14.925c20.361-0.238,40.368-5.356,58.342-14.925l12.425,12.425
		c1.026,1.027,2.296,1.776,3.692,2.175l50.333,14.384c5.177,1.473,10.027,3.916,14.292,7.2l96.858,74.508L433.266,223.194z"/>
</g>
<g>
</g>
<g>
</g>
<g>
</g>
<g>
</g>
<g>
</g>
<g>
</g>
<g>
</g>
<g>
</g>
<g>
</g>
<g>
</g>
<g>
</g>
<g>
</g>
<g>
</g>
<g>
</g>
<g>
</g>
</svg>
